<svg xmlns="http://www.w3.org/2000/svg" width="241" height="499" preserveAspectRatio="xMidYMid"><defs><style>.cls-1 { fill: #38c3ef; } .cls-1, .cls-10, .cls-12, .cls-13, .cls-14, .cls-15, .cls-16, .cls-17, .cls-18, .cls-19, .cls-2, .cls-20, .cls-3, .cls-4, .cls-5, .cls-6, .cls-7, .cls-8 { fill-rule: evenodd; } .cls-2 { fill: #ffcf20; } .cls-3 { fill: #96d860; } .cls-4 { fill: #fe88a6; } .cls-5 { fill: #4dc8a1; } .cls-6 { fill: #ff9e2c; } .cls-7 { fill: #6daedc; } .cls-8 { fill: #c986c2; } .cls-9 { fill: #edf4db; } .cls-10 { fill: #9cc11f; } .cls-11 { fill: #e1f6fd; } .cls-12 { fill: #dfe5e9; } .cls-13 { fill: #fff; } .cls-14 { fill: #126e8b; opacity: 0.12; } .cls-15, .cls-21 { fill: #272e3a; } .cls-16 { fill: #9be7ff; } .cls-17 { fill: #15a1dc; } .cls-18 { fill: #2db7eb; } .cls-19 { fill: #63d5fa; } .cls-20 { fill: #74d5f4; } .cls-22 { fill: #111317; opacity: 0.4; }</style></defs><path d="M284-13h-38c-2.8 0-5-2.2-5-5v-28c0-2.8 2.2-5 5-5h38c2.8 0 5 2.2 5 5v28c0 2.8-2.2 5-5 5zm3-33c0-1.7-1.3-3-3-3h-38c-1.7 0-3 1.3-3 3v5h44v-5zm0 7h-44v21c0 1.7 1.3 3 3 3h38c1.7 0 3-1.3 3-3v-21zm-18.8 12l-2.2-2.3v7.4c0 1-.4 1-1 1-.5 0-1 0-1-1v-7l-2.2 3c-.4 1-1 1-1.4 0-.4 0-.4-1 0-1l4-4h.6l.7 1 4 4c.3 1 .3 1 0 2-.4 1-1 1-1.5 0zM249-47c1 0 2 1 2 2s-1 2-2 2-2-1-2-2 1-2 2-2zm6 0c1 0 2 1 2 2s-1 2-2 2-2-1-2-2 1-2 2-2zm6 0c1 0 2 1 2 2s-1 2-2 2-2-1-2-2 1-2 2-2zm27 82h-46c-.6 0-1-.4-1-1V20c0-.6.4-1 1-1h46c.6 0 1 .4 1 1v14c0 .6-.4 1-1 1zm-1-14h-6v4h-2v-4h-4v4h-2v-4h-4v4h-2v-4h-4v4h-2v-4h-4v4h-2v-4h-4v4h-2v-4h-6v12h44V21zm-9.4-10.2l-.6.2h-29c-2.8 0-5-2.2-5-5V2c0-2.8 2.2-5 5-5h29c.2 0 .4 0 .6.2l9 6c.5.3.5 1.3 0 1.6l-9 6zM255 9h17.6c-.4-.6-.6-1.3-.6-2h-17v2zm0-4h17.6l.8-1-.8-1H255v2zm-6-6h-1c-1.7 0-3 1.3-3 3v4c0 1.7 1.3 3 3 3h1V-1zm4 0h-2V9h2V-1zm2 0v2h17c0-.7.2-1.4.6-2H255zm25 2.2L276.7-1h-.7c-1 0-2 1-2 2s1 2 2 2c.6 0 1 .4 1 1s-.4 1-1 1c-1 0-2 1-2 2s1 2 2 2h.7l3.3-2.2V1.2zm2 1.3v3l2.2-1.5-2.2-1.5zm3 74.5h-40c-2.2 0-4-1.8-4-4V49c0-2.2 1.8-4 4-4h40c2.2 0 4 1.8 4 4v24c0 2.2-1.8 4-4 4zm2-28c0-1-1-2-2-2h-40c-1 0-2 1-2 2v24c0 1 1 2 2 2h40c1 0 2-1 2-2V49zm-4 22c-.2 0-.4 0-.6-.2l-9-6c-.4-.3-.5-1-.2-1.4.3-.4 1-.5 1.4-.2l9 6c.4.3.5 1 .2 1.4-.2.2-.5.4-.8.4zm-18-4.8l-17.5-11.4c-.5-.3-.6-1-.3-1.3.3-.5 1-.6 1.3-.3L265 63.8l16.5-10.6c.4-.3 1-.2 1.3.3.3.4.2 1-.3 1.3L265 66.2zm-8.2-2.8c.3.5.2 1-.2 1.4l-9 6-.6.2c-.3 0-.6-.2-.8-.4-.3-.5-.2-1 .2-1.4l9-6c.5-.3 1-.2 1.4.2zM278 96c0 .6-.4 1-1 1s-1-.4-1-1 .4-1 1-1 1 .4 1 1zm-5 0c0 .6-.4 1-1 1s-1-.4-1-1 .4-1 1-1 1 .4 1 1zm14 11h-4.6l-7.7 7.7c-.2.2-.4.3-.7.3h-.4c-.4-.2-.6-.6-.6-1v-7h-3c-.6 0-1-.4-1-1s.4-1 1-1h4c.6 0 1 .4 1 1v5.6l6.3-6.3c.2-.2.4-.3.7-.3h4V89h-28v7c0 .6-.4 1-1 1s-1-.4-1-1v-8c0-.6.4-1 1-1h30c.6 0 1 .4 1 1v18c0 .6-.4 1-1 1zm-21-11c0-.6.4-1 1-1s1 .4 1 1-.4 1-1 1-1-.4-1-1zm1 15.5c0 3.5-1.8 6.6-4 8.5v3l7.2 2.6c2.3.8 3.8 3 3.8 5.4v4h-32v-4c0-2.4 1.5-4.6 3.8-5.4l7.2-2.6v-2.7c-2.5-1.8-4-5-4-8.8 0-5.8 4-10.5 8.8-10.5 5 0 9.2 4.7 9.2 10.5zm-20.5 16c-1.5.5-2.5 2-2.5 3.5v2h28v-2c0-1.6-1-3-2.5-3.5l-8.5-3v-3.2c-1 .4-2 .7-3.2.7-1 0-2-.2-2.8-.6v3l-8.5 3zm4.4-16c0 4.7 3 8.5 6 8.5s7-3.7 7-8.3h-1c-2 0-4-.7-5-2.3-2 1.3-4 2.3-6 2.3-1 0-2 0-2-.3zm0-2l2 .2c2 0 4-1.2 5-2.5l1-1.6 1 1.6c1 2.2 2 3 5 2.5-1-3.8-4-6.7-8-6.7s-6 2.7-7 6.4zm14 83.5c-14 0-24-10.8-24-24s10-24 24-24 24 10.8 24 24-11 24-24 24zm0-46c-12 0-22 10-22 22s10 22 22 22 22-10 22-22-10-22-22-22zm19 22h-4c-1 0-1-.4-1-1s0-1 1-1h4s1 .4 1 1-1 1-1 1zm-1-6.3l-4 1.5h-1c-1 0-1-.2-1-.6-1-.5 0-1 0-1.3l3-1.5c0-.2 1 0 1 .5 0 .6 0 1-1 1.4zm-15 4.3v2c0 2.2-2 4-4 4s-4-1.8-4-4 1-4 4-4l2 .6 9-9.3c0-.4 1-.4 1 0v1.4l-9 9.3zm-4 0c-1 0-2 1-2 2s1 2 2 2 2-1 2-2-1-2-2-2zm8-11.5l-1 .6h-1c-1 0-1 0-1-1l1-3h1v2l-1 4zm-7 0c-1 0-1-.6-1-1v-4c0-.7 0-1 1-1s1 .3 1 1v4c0 .4-1 1-1 1zm-7 .6h-1l-2-3v-1s1 0 1 1l1 4c0 1 0 1-1 2zm15 22v6c0 1-1 1-1 1h-18c-1 0-1 0-1-1v-6s0-1 1-1h18l1 1zm-2 1h-16v4h16v-4zm-18-19h-1l-3-2c-1 0-1-1 0-1h1l3 3v2h-1zm-3 5c0 1-1 1-1 1l-4-2c-1 0-1-1-1-1s0-1 1 0l3 2s1 1 0 1zm-1 5c0 1-1 1-1 1h-4c-1 0-1 0-1-1s0-1 1-1h4l1 1zm-4 8l4-2s1 0 1 1 0 1-1 2l-4 2h-2v-2zm32-2l3 2v1c0 1-1 1-1 1l-4-2c-1 0-1-1-1-1 0-1 0-1 1-1z" class="cls-1"/><path d="M410-3h-18c-5 0-9-4-9-9v-12c0-4 2.5-7.2 6-8.5V-39c0-6.6 5.4-12 12-12s12 5.4 12 12v6.5c3.5 1.3 6 4.6 6 8.5v12c0 5-4 9-9 9zm1-30v-6c0-5.5-4.5-10-10-10s-10 4.5-10 10v6h20zm6 9c0-4-3-7-7-7h-18c-4 0-7 3-7 7v12c0 4 3 7 7 7h18c4 0 7-3 7-7v-12zm-16 10c-2.8 0-5-2.2-5-5s2.2-5 5-5 5 2.2 5 5-2.2 5-5 5zm0-8c-1.7 0-3 1.3-3 3s1.3 3 3 3 3-1.3 3-3-1.3-3-3-3z" class="cls-2"/><path d="M417.7 17.4l-4.3 4.3 2 2c.5.5.5 1 0 1.5 0 .2-.3.3-.6.3-.2 0-.5 0-.7-.3l-2-2L398 37c-1 1-2.6 1.5-4.2 1.5-.5 0-1 0-1.5-.2l-2.7 2.7c-.2.3-.5.4-.8.4-.2 0-.5 0-.7-.3l-2-2h1l3-3c0-2 0-4 2-5l14-14-2-2v-1h2l3 2 4-4c3-2 7-2 9 0 1 1 2 3 2 4s0 3-2 4zM391 30c-1.3 1-1.6 2.7-1 4 0 .5 0 1-.2 1.2l-2.5 2.4 1.4 1.4 2.5-2.4c.3-.3.7-.4 1-.2 1.5.6 3.3.2 4.4-1l14-13.7L405 16l-14 14zm25-19.7c-1.5-1.5-4-1.5-5.7 0l-4.2 4.2 6 5.7 4-4.2c1-.8 2-1.8 2-3 0-1 0-2-1-2.7zm-9.2 12L395 34c-.2.5-.7.7-1.3.7-.5 0-1-.2-1.4-.6-.8 0-.8-2 0-2L404 20h1.6l1.4 1c.4.3.4 1 0 1.4zM387.5 48c0 1.7-1.3 3-3 3s-3-1.3-3-3c0-1.2 1.5-3.5 2.2-4.5.3-.5 1.2-.5 1.6 0 .7 1 2.2 3.3 2.2 4.6zm-4 0c0 .6.4 1 1 1 .5 0 1-.4 1-1l-1-2-1 2z" class="cls-3"/><path d="M422.7 88.5c0 .4 0 1-.4 1.5-.4.6-1 1-2 1H418c0 2.4 0 7.4-1.8 9-1.6 1.7-3.7 2-7.2 2v6c0 .6-.4 1-1 1h-20c-.6 0-1-.4-1-1V97c-5.4-3.3-8-8.7-8-16 0-11.2 8.8-20 20-20 9.6 0 19.4 6.3 19.4 16.8 0 .4.8 2 1.4 3 1.5 2.4 3 5.2 3 7.4v.3zm-4.6-6.8c-1-2-1-3-1-4 0-9.2-9-14.7-17-14.7-10 0-18 8-18 18 0 6.8 3 11.7 8 14.6 1 .2 1 .5 1 1V107h18v-6c0-.3 0-.5 1-.7l1-.3h1c4 0 6-.3 7-1.3s1-5.7 1-8.7c0-.3 0-.5 1-.7 0-.2 0-.3 1-.3h4v-1c0-1.5-2-4.2-3-6.2zM400 91h-1.2c-1-1-10.5-7.7-10.5-13.4 0-4 3-6.5 6-6.5 1.8 0 3.8 1 5 4 1.4-2 3.5-3 5-3 3 0 6 3 6 7 0 6-9.2 13-10.3 14zm4.5-18c-1.8 0-3.4 1.6-4 4.2-.2 1-1.7 1-2 0-.6-2.6-2-4-4-4s-4 1.6-4 4.4c0 3.7 6 9 9 11.3 3-3 9-8 9-12 0-3-2-5-4-5z" class="cls-4"/><path d="M432 159c-.5 0-1-.5-1-1 0-2.2-1.3-4.2-3.2-5l-10-3.5c-.5-.2-.8-.6-.8-1v-4c-1.2.5-2.6.5-4 .5s-2.7 0-4-.6v4c0 .5-.3 1-.7 1l-5 1.8c2.7 1.5 4.8 3 4.8 4 0 .7 0 1-1 1l-1-.7c0-1-6-4.2-13-7v-6c0-.5 1-1 1-1s2-1 2-5.6c0-1 1-1 1-1 0-1 1-2 1-3v-1l-1-1 1-2c1-1 2-3 1-5s-4-3-6-3c-3 0-6 1-7 3 0 0 0 1-1 1h-2s0 2 1 4l1 1s0 1-1 1h-1c0 1 0 2 1 2h2c0 4 2 5 2 5 1 0 1 0 1 1v5s0 1-1 1c-7 3-13 6-14 7 0 0 0 1-1 1l-1-1c0-3 11-7 15-9v-4c-1-1-3-2-3-6-1-1-2-2-2-4 0-1 0-2 1-2l1-1c-1-2-2-4-1-6 0-1 1-1 2-1 1.6-3 5-4 8.7-4s8 1 8.8 4c1 2 0 5-1 6l1 1c1 0 1 1 1 2s-1 3-2 3c0 4-1.4 5.3-2.3 6v4l7 3 6-2v-4l-2-2c-2-2.7-3-6-3-9.5v-2c1-6 5.7-11 11-11 3 0 6 2 8 4s3 6 3 9c0 5-2 9-5 11v5l9.5 4c2.6 1 4 3 4.7 5v1c0 .4-1 1-1 1zm-12.6-35c-1.7-2-4-3.2-6.4-3.2-4.3 0-8 3.7-9 8.7 1 .3 2 .5 3 .5 2.6 0 5.8-1.6 6.7-3.4.2-.3.5-.5 1-.5.3 0 .6 1 .7 1 1.8 3 3.6 4 6.5 4l-3-6zm2.7 8l-1 .2c-2 0-4-1-6-3.4-1 2-4 3.2-7 3.2-1 0-2 0-3-.4v.4c0 3 1 6 3 8s4 3 7 3c5 0 9-4.8 9-11z" class="cls-5"/><path d="M425 193c0 1.8-1 3.4-2.4 4.3 1 1.4 1.3 3.2.6 5-.7 1.5-2.2 2.7-4 3 .5 1.6 0 3.4-1.2 4.7-1.3 1.2-3 1.7-4.8 1.3-.2 1.7-1.4 3.2-3 4-1.7.5-3.6.3-5-.7-.8 1.4-2.4 2.4-4.2 2.4-1.8 0-3.4-1-4.3-2.4-1.3 1-3.3 1.2-5 .6-1.6-.7-2.7-2.2-3-4-1.6.5-3.4 0-4.7-1.2-1.2-1.3-1.7-3-1.3-4.8-1.7-.2-3.2-1.4-4-3-.6-1.7-.3-3.5.7-5-1.4-.8-2.4-2.4-2.4-4.2 0-1.8 1-3.4 2.4-4.3-1-1.4-1.3-3.2-.6-5 .7-1.5 2.2-2.7 4-3-.5-1.6 0-3.4 1.2-4.7 1.3-1.2 3-1.7 4.8-1.3.2-1.7 1.3-3.2 3-4 1.6-.5 3.6-.3 5 .7.8-1.4 2.4-2.4 4.2-2.4 1.8 0 3.4 1 4.3 2.4 1.3-1 3.2-1.2 5-.6 1.5.7 2.7 2.2 3 4 1.6-.5 3.4 0 4.7 1.2 1.2 1.3 1.7 3 1.3 4.8 1.7.2 3.2 1.4 4 3 .6 1.7.3 3.5-.7 5 1.4.8 2.4 2.4 2.4 4.2zm-4.4-3c-.5 0-.8-.3-.8-.7 0-.4 0-.8.4-1 1.2-.8 1.7-2.4 1-3.7-.4-1.3-2-2-3.3-1.8-1 0-1 0-1-.4-1-.4-1-.8 0-1 0-1.3 0-3-1-4s-3-1-4-.3c0 1-1 1-1 0-1 0-1 0-1-1s-1-2-2-3c-2 0-3 0-4 1l-1 1s-1 0-1-1-2-2-3-2-3 1-3 3c0 1-1 1-1 1h-1c-1-1-3-1-4-1-2 1-2 2-2 4 0 1 0 1-1 1h-1c-1-1-3 0-4 1s-1 3 0 4v1c0 1-1 1-1 1-1 0-3 1-3 2-1 1 0 3 1 4v1l-1 1c-2 0-3 1-3 3s1 3 2 3c0 0 1 0 1 1v1c-1 1-2 2-1 4 0 1 2 2 3 1h1v1c-1 2-1 3 0 4s3 1 4 1h1v1c-1 2 0 3 1 4 1.2 0 3 0 4-1 0-1 0-1 1-1s.2 0 1 1c0 1 1 2 2.2 2s2.5-1 3-2c0-1 0-1 .5-1h1c1 1 3 2 4 1 1.5 0 2-2 2-3 0 0 0-1 .4-1h1c1.6 1 3 1 4 0s1-3 .6-4c-.6-.2-.6-.6 0-1 0-.3.2-.5 1-.4 1 0 3-.3 3-2 1-1 0-2.4-1-3.2v-1s0-1 1-1 2-1 2-3-1-2-2.8-3zm-24 10.7c0 .2-.4.3-.6.3-.3 0-.5 0-.7-.3l-5-5c-.4-.4-.4-1 0-1.4.4-.4 1-.4 1.4 0l4.3 4.3 14.3-13.3c.4-.4 1-.4 1.4 0 .4.4.4 1 0 1.4l-15 14z" class="cls-6"/><path d="M333-4c-13.2 0-24-10.8-24-24 0-13.3 10.8-24 24-24 5.8 0 11.4 2 15.8 6 .2 0 .3.3.3.6v.7l-6 6.2c0 .4-1 .4-1 0-3-1.7-6-2.5-9-2.5-6 0-11 3.5-12 8.8v4.2c0 7.3 6 13 14 13 6 0 11-3 13-8h-12s-1-.4-1-1v-9c0-.6 1-1 1-1h21c1 0 1 .3 1 .8 1 1.6 1 3.6 1 5.2 0 13.2-10 24-24 24zm-20.3-15.4l5.7-4.3c-.4-1.4-.7-2.8-.7-4.3 0-1.4.2-2.8.6-4l-5.7-4.4c-1 2.6-1.6 5.4-1.6 8.4s.6 6 1.7 8.6zM333-43c3.2 0 6.3.7 8.8 2.5l5-4.8c-4-3-8.8-4.8-13.8-4.8-8.5 0-15.8 4-19.5 11l5.5 5c2.3-6 7.7-9 14-9zm-14 21.2l-5.4 4.2c3.7 7 11 11.6 19.4 11.6 5 0 9.7-1.7 13.4-4.6l-5.5-4.2c-3 1.3-6 1.8-8 1.8-7 0-12-3.5-14-8.8zM354.8-32H335v7h11.8c.3 0 .6.2.8.4.2.2.2.6 0 1-.7 3-2.6 5.7-5 7.6l5.4 4c4.3-4 7-9.6 7-16 0-1.2 0-2.8-.3-4z" class="cls-7"/><path d="M352 43h-38c-2.8 0-5-2.2-5-5V12c0-2.8 2.2-5 5-5h38c2.8 0 5 2.2 5 5v26c0 2.8-2.2 5-5 5zm3-31c0-1.7-1.3-3-3-3h-38c-1.7 0-3 1.3-3 3v26c0 1.7 1.3 3 3 3h38c1.7 0 3-1.3 3-3V12zm-14 25c-3 0-5.5-1-7.4-3-2 1.8-4.7 3-7.6 3-6 0-11-5-11-11s5-11 11-11c3 0 5.6 1.2 7.6 3 2-2 4.7-3 7.5-3 6 0 11 5 11 11s-5 11-11 11zm-14-20v2h-2v-2c-2.7.4-5 2-6.5 4h.5v2h-1.5c-.2.6-.4 1.3-.4 2h2v2h-2c0 .7 1 1.4 1 2h2v2c2 2 4 3.6 7 4v-2h2v2c3-.4 5-2 7-4v-2h2c1-.6 1-1.3 1-2h-2v-2h2v-2h-2v-2c-1-2-4-3.6-6-4zm14 0c-2.2 0-4.4 1-6 2.6 1.2 1.8 2 4 2 6.4 0 2.4-.8 4.6-2 6.4 1.5 1.7 3.6 2.6 6 2.6 5 0 9-4 9-9s-4-9-9-9zm-12 14h2v2h-2v-2zm0-4h2v2h-2v-2zm0-4h2v2h-2v-2zm0-4h2v2h-2v-2zm-4 10h2v2h-2v-2zm0-4h2v2h-2v-2zm0-4h2v2h-2v-2zm-4 10h2v2h-2v-2zm0-4h2v2h-2v-2zm0-4h2v2h-2v-2zm0-4h2v2h-2v-2z" class="cls-8"/><path d="M286.8 248.5c0 .4 0 1-.4 1.5-.5.6-1.2 1-2 1H282c0 2.4 0 7.4-1.6 9-1.5 1.7-4 2-7.4 2v6c0 .5-.4 1-1 1h-20c-.5 0-1-.4-1-1v-11c-5.3-3.3-8-8.7-8-16 0-11.2 8.8-20 20-20 9.6 0 19.4 6.3 19.4 16.8 0 .4 1 2 1.5 3 1 2.4 3 5.2 2 7.4v.3zm-4.7-6.8c-1-2-1-3-1-4 0-9.2-9-14.7-17-14.7-10 0-18 8-18 18 0 6.8 3 11.7 8 14.6 1 .2 1 .5 1 1V267h18v-5c-2 0-3-.6-5-1.4V259h2c3 1 5 2 7 2 3 0 5 0 6-1s1-5 1-8h1s1-.2 1 0h4v-.6c1-1.6-1-4.3-2-6.3zM272 213c-.2.5-.8.7-1.3.4-.4-.3-.6-1-.3-1.4l3.5-6c0-.5 0-.7 1-.4v1.4l-4 6zm-9-1c-.6 0-1-.4-1-1v-7c0-.6.4-1 1-1s1 .4 1 1v7c0 .6-.4 1-1 1zm-7.8 1.4c-.4.3-1 0-1.3-.4l-4-6c-1-.5 0-1 0-1.4 0-.3 1 0 1 .4l3 6c0 .5 0 1-1 1.4z" class="cls-4"/><circle cx="333" cy="138" r="25" class="cls-9"/><path d="M364 160c-.5 0-1-.5-1-1 0-2.2-1.3-4.2-3.2-5l-10-3.5c-.5-.2-.8-.6-.8-1v-4c-1.2.5-2.6.5-4 .5s-2.7 0-4-.6v4c0 .5-.3 1-.7 1l-5 1.8c2.7 1.5 4.8 3 4.8 4 0 .7 0 1-1 1l-1-.7c0-1-6-4.2-13-7v-6c0-.5 1-1 1-1s2-1 2-5.6c0-1 1-1 1-1 0-1 1-2 1-3v-1l-1-1 1-2c1-1 2-3 1-5s-4-3-6-3c-3 0-6 1-7 3 0 0 0 1-1 1h-2s0 2 1 4l1 1s0 1-1 1h-1c0 1 0 2 1 2h2c0 4 2 5 2 5 1 0 1 0 1 1v5s0 1-1 1c-7 3-13 6-14 7 0 0 0 1-1 1l-1-1c0-3 11-7 15-9v-4c-1-1-3-2-3-6-1-1-2-2-2-4 0-1 0-2 1-2l1-1c-1-2-2-4-1-6 0-1 1-1 2-1 1.6-3 5-4 8.7-4s8 1 8.8 4c1 2 0 5-1 6l1 1c1 0 1 1 1 2s-1 3-2 3c0 4-1.4 5.3-2.3 6v4l7 3 6-2v-4l-2-2c-2-2.7-3-6-3-9.5v-2c1-6 5.7-11 11-11 3 0 6 2 8 4s3 6 3 9c0 5-2 9-5 11v5l9.5 4c2.6 1 4 3 4.7 5v1c0 .4-1 1-1 1zm-12.6-35c-1.7-2-4-3.2-6.4-3.2-4.3 0-8 3.7-9 8.7 1 .3 2 .5 3 .5 2.6 0 5.8-1.6 6.7-3.4.2-.3.5-.5 1-.5.3 0 .6 1 .7 1 1.8 3 3.6 4 6.5 4l-3-6zm2.7 8l-1 .2c-2 0-4-1-6-3.4-1 2-4 3.2-7 3.2-1 0-2 0-3-.4v.4c0 3 1 6 3 8s4 3 7 3c5 0 9-4.8 9-11z" class="cls-10"/><circle cx="333" cy="78" r="25" class="cls-11"/><path d="M352 97c-.4 0-.8-.3-1-.8-.6-1-6.5-4-13.4-6.7-.4-.2-.6-.5-.6-1V83c0-.5.3-1 .6-1 0 0 2-1 2-5.5 0-.6.4-1 1-1 .2 0 .8-1.3.6-2.5-.2-.7-.4-.7-.6-.7-.5 0-1-.4-1-1l.4-1.2c.5-1 1.3-3 1-5-.7-2-4-3-7-3-2.7 0-5.8 1-6.3 3-.2 1-.7 1-1.2 1H325c-.3 1 0 2 1 4l.4 2c0 1-.4 1-1 1 0 0-.5 0-.6 1-.2 1 .4 3 .6 3 .3 0 .5 0 .7 1l1 1c0 5 2 6 2 6 1 0 1 1 1 1v6c-7 3-12 6-13 7 0 1 0 1-1 1 0 0-1 0-1-1 0-2 10-6 14-8v-5c-1 0-2-2-2-6-1 0-2-2-2-3s1-2 1-2l1-1c0-2-2-5 0-6 1-1 2-1 3-1 2-3 5-4 8-4 4 0 8 1 9 5 1 3 0 5-1 6l1 1 1 2c0 2-1 4-2 4 0 4-1 6-2 7v4c4 2 14 6 14 8 0 1 0 1-1 1z" class="cls-1"/><path d="M1459 517h-54v14c0 3.3-2.7 6-6 6H511c-3.3 0-6-2.7-6-6v-14h-54c-3.3 0-6-2.7-6-6V15c0-3.3 2.7-6 6-6h54v-54c0-3.3 2.7-6 6-6h888c3.3 0 6 2.7 6 6V9h54c3.3 0 6 2.7 6 6v496c0 3.3-2.7 6-6 6zM505 11h-54c-2.2 0-4 1.8-4 4v496c0 2.2 1.8 4 4 4h54V11zm898-56c0-2.2-1.8-4-4-4H511c-2.2 0-4 1.8-4 4v576c0 2.2 1.8 4 4 4h888c2.2 0 4-1.8 4-4V-45zm2 83h46V24h-46v14zm58-23c0-2.2-1.8-4-4-4h-54v11h48v18h-48v475h54c2.2 0 4-1.8 4-4V15zM565-38h828v18H565v-18zm2 16h824v-14H567v14zm-20-3c-2.2 0-4-1.8-4-4s1.8-4 4-4 4 1.8 4 4-1.8 4-4 4zm0-6c-1 0-2 1-2 2s1 2 2 2 2-1 2-2-1-2-2-2zm-10 6c-2.2 0-4-1.8-4-4s1.8-4 4-4 4 1.8 4 4-1.8 4-4 4zm0-6c-1 0-2 1-2 2s1 2 2 2 2-1 2-2-1-2-2-2zm-10 6c-2.2 0-4-1.8-4-4s1.8-4 4-4 4 1.8 4 4-1.8 4-4 4zm0-6c-1 0-2 1-2 2s1 2 2 2 2-1 2-2-1-2-2-2zm-60 58c2.2 0 4 1.8 4 4s-1.8 4-4 4-4-1.8-4-4 1.8-4 4-4zm0 6c1 0 2-1 2-2s-1-2-2-2-2 1-2 2 1 2 2 2zm10-6c2.2 0 4 1.8 4 4s-1.8 4-4 4-4-1.8-4-4 1.8-4 4-4zm0 6c1 0 2-1 2-2s-1-2-2-2-2 1-2 2 1 2 2 2zm10-6c2.2 0 4 1.8 4 4s-1.8 4-4 4-4-1.8-4-4 1.8-4 4-4zm0 6c1 0 2-1 2-2s-1-2-2-2-2 1-2 2 1 2 2 2z" class="cls-12"/><path d="M345 200v4h-3v6h-4v-2h-2v2h-10v-4h-2v-2h-2v-2h-2v-10h2v-2h2v-2h2v-2h14v2h4v2h2v10h-1z" class="cls-13"/><path d="M345 202v-2h1v2h-1zm0 4h-3v-2h3v2zm-3 6h-4v-2h4v2zm-16 0v-2h10v2h-10zm10-4h2v2h-2v-2zm-12-2h2v2h-2v-2zm-2-2h2v2h-2v-2zm-2-2h2v2h-2v-2z" class="cls-14"/><path d="M345 200v4h-3v-4h2v-10h2v10h-1zm-11-4h2v8h-2v-8zm-4 0h2v8h-2v-8zm12-4h-2v-4h4v2h-2v2zm-4 0h-2v-4h-4v4h-2v-4h-4v-2h14v2h-2v4zm-14 4v-4h-2v-2h2v-2h2v8h-2zm0 8h-2v-2h2v2zm2 2h-2v-2h2v2zm2 2h8v2h-10v-4h2v2zm10-2v2h-2v-2h2zm2-2h2v6h-4v-2h2v-4zm-2-8h2v8h-2v-8zm-18 6v-10h2v10h-2z" class="cls-15"/><path d="M261.2 399.2l118-23.4 17.5 88.4-118 23.3-17.5-88.3z" class="cls-13"/><path d="M266 401.8L375.8 380l16.2 81.2L282.2 483 266 401.8z" class="cls-16"/><path d="M271.4 409.3L390.2 398l8.2 89.8-119 11-8-89.6z" class="cls-14"/><path d="M270.4 405.3L390.2 394l8.2 89.8-120 11-8-89.6z" class="cls-13"/><path d="M275 408.4L386.4 398l7.6 81.6L282.6 490l-7.6-81.6z" class="cls-17"/><path d="M240.7 434l113.6-39.7 29.7 85L270.5 519l-29.8-85z" class="cls-14"/><path d="M240.7 425l113.6-39.7 29.7 85L270.5 510l-29.8-85z" class="cls-13"/><path d="M246 428l105.4-37 26.6 77-105.4 37-26.6-77z" class="cls-1"/><path d="M298.6 493.5l-16.4-7.7 4-8 12 5.4 8.3-18 4.4 2-13 26.3z" class="cls-18"/><path d="M272.6 505l-1-2.6 8.4-17.6 18.6 8.7 17.4-37.2 8.4 4 2.2-4.7 21 9.8-1 6 2.6-5.2 6.5-14 20 9.4 2.3 6.3-105.4 37z" class="cls-19"/><path d="M362 431l-7.8 2.8c-1 .4-2-.2-2.2-1-.4-1 0-2 1-2.3h.5c-.4-.3-.7-.7-1-1.2-.3-1 .3-2.4 1.4-2.8 0-.2 1 0 2 .3-1-1.4 0-3 1-3.4 1-.5 3 .2 3 1.6v1.7c1 0 2 .5 2 1.4 0 2-1 3-2 3zm-19.6 0l-19.3 7c-2 1-4-.5-5-2.7s1-4.7 3-5.5l2-.2c-1-.6-2-1.6-2-2.8-1-2.7 1-5.8 4-6.8 2-.6 4-.3 5 .5-1-3.4 1-7 5-8.3 4-1.3 8 .5 9 4 1 1.4 1 3 0 4.3 3 0 5 1.2 6 3.3 1 2.8 0 6.3-3 7.3zM275 474l-7.7 2.8c-1 .3-2-.3-2.3-1.2-.3-.8.2-1.8 1-2.2h.6c-.4-.3-.8-.7-1-1.2-.3-1 .3-2.3 1.4-2.7.7-.3 1.4-.2 2 .2-.4-1.4.3-3 1.7-3.4 1.5-.5 3.2.2 3.7 1.6.2 0 .2 1 0 1 1 0 2 0 2.2 1 .4 1-.4 2-1.5 3z" class="cls-20"/><path d="M310.7 443l2.5 7 3.6-5.4-6-1.7z" class="cls-13"/><path d="M313.5 455c-5.2 0-9.5-4.3-9.5-9.5s4.3-9.5 9.5-9.5 9.5 4.3 9.5 9.5-4.3 9.5-9.5 9.5zm0-17c-4 0-7.5 3.4-7.5 7.5 0 4 3.4 7.5 7.5 7.5 4 0 7.5-3.4 7.5-7.5 0-4-3.4-7.5-7.5-7.5zM345 240h-1v4h-2v6h-4v-2h-2v2h-10v-4h-2v-2h-2v-2h-2v-4h-2v-2h-2v-4h2v-2h4v2h2v-12h2v-2h4v2h2v6h8v2h4v2h2v10h-1z" class="cls-13"/><path d="M344 242v-2h2v2h-2zm0 4h-2v-2h2v2zm-2 6h-4v-2h4v2zm-16 0v-2h10v2h-10zm10-4h2v2h-2v-2zm-12-2h2v2h-2v-2zm-2-2h2v2h-2v-2zm-2-2h2v2h-2v-2zm-2-4h2v2h-2v-2zm-2-2h2v2h-2v-2z" class="cls-14"/><path d="M344 240v-10h2v10h-2zm-10-4h2v8h-2v-8zm-4 0h2v8h-2v-8zm12-4h-2v-4h4v2h-2v2zm-4 0h-2v-4h-4v4h-2v-12h2v6h8v2h-2v4zm-14 4v-2h-2v-2h2v-12h2v16h-2zm-4 2h-2v-2h2v2zm2 4h-2v-4h2v4zm2 2h-2v-2h2v2zm2 2h-2v-2h2v2zm2 2h8v2h-10v-4h2v2zm10-2v2h-2v-2h2zm2-2h2v6h-4v-2h2v-4zm-2-8h2v8h-2v-8zm6 4v4h-2v-4h2zm-28-4v-4h2v4h-2zm2-6h4v2h-4v-2zm8-12h4v2h-4v-2zM-827.4 498c-84.8 0-88.4-21-88.5-21.8 0-.3 0-.6 1-.8 0-.3 1-.4 1-.4h58V-21.4c0-16 13-28.7 29-28.7h730c16 0 29 13 29 29v496h58s1 0 0 1c0 1-3 21-86 22h-731z" class="cls-15"/><path d="M-463-34c-1.7 0-3 1.3-3 3 0 .5-.5 1-1 1-.6 0-1-.5-1-1 0-2.8 2.2-5 5-5 2.7 0 5 2.2 5 5 0 2.7-2.3 5-5 5-.6 0-1-.5-1-1 0-.6.4-1 1-1 1.6 0 3-1.4 3-3 0-1.7-1.4-3-3-3zm365.4 533h-730.8c-84.8 0-89.4-23-89.5-23.8 0-.3 0-.6 1-.8 0-.3 1-.4 1-.4h59V-22.4c0-16 13-28.7 29-28.7h732c16 0 29 13 29 29v496h-2V-22c0-15-12-27-27-27h-732c-15 0-27 12-27 26.7V474h287c1 0 1 .4 1 1 0 1.6 2 3 3 3h203c2 0 3-1.4 3-3 0-.6 1-1 1-1H-9c.2 0 .5 0 .7.4.2.2.3.5.2.8-1 1-5 23.8-90 23.8zm-259-23c-.6 2.3-2.6 4-5 4H-565c-2.5 0-4.5-1.7-5-4h-345.5c2.3 4.6 15.6 21 87 21h731c71.4 0 84.7-16.4 87-21h-346.2z" class="cls-1"/><path d="M204.3 498H36.7C17 498 1 482 1 462.3V36.8C1 17 17 1 36.7 1h167.6C224 1 240 17 240 37v425.5c0 19.7-16 35.7-35.7 35.7z" class="cls-15"/><path d="M205 499H36c-20 0-36-16.2-36-36V36C0 16 16 0 36 0h169c20 0 36 16 36 36v427c0 19.8-16 36-36 36zm34-463c0-18.7-15.2-34-34-34H36C17.3 2 2 17.3 2 36v427c0 18.7 15.3 34 34 34h169c18.8 0 34-15.3 34-34V36zm-99.8-4h-38.5c-.5 0-1-.4-1-1s.5-1 1-1h38.5c.6 0 1 .4 1 1s-.4 1-1 1zM120 453c8.3 0 15 6.7 15 15 0 8.2-6.7 15-15 15s-15-6.8-15-15c0-8.3 6.7-15 15-15zm0 28c7.2 0 13-6 13-13 0-7.2-5.8-13-13-13s-13 5.8-13 13c0 7 5.8 13 13 13z" class="cls-1"/><path d="M-8 446h8v2h-8z" class="cls-21"/><path d="M-5 448c.6 0 1-.4 1-1s-.4-1-1-1h-3v2h3z" class="cls-1"/><path d="M71-8h2v8h-2z" class="cls-21"/><path d="M71-5c0 .6.4 1 1 1s1-.4 1-1v-3h-2v3z" class="cls-1"/><circle cx="333" cy="335" r="19" class="cls-22"/><path d="M333 352c-10.5 0-19-8.5-19-19s8.5-19 19-19 19 8.5 19 19-8.5 19-19 19zm0-36c-9.4 0-17 7.6-17 17s7.6 17 17 17 17-7.6 17-17-7.6-17-17-17zm0 31c-7.7 0-14-6.3-14-14s6.3-14 14-14 14 6.3 14 14-6.3 14-14 14zm4-22c-1.7 0-3 1.3-3 3s1.3 3 3 3 3-1.3 3-3-1.3-3-3-3z" class="cls-13"/></svg>